<svg class="svg-icon" style="width: 1em; height: 1em;vertical-align: middle;fill: currentColor;overflow: hidden;" viewBox="0 0 1024 1024" version="1.1" xmlns="http://www.w3.org/2000/svg"><path d="M296.690688 286.65856c71.503872 0 138.81344-28.046336 190.299136-79.121408 2.009088-1.238016 3.84-2.772992 5.492736-4.48512 48.181248-50.24768 112.18432-77.88032 180.143104-77.88032 89.867264 0 174.124032 50.363392 219.942912 131.493888 8.266752 14.759936 26.923008 19.89632 41.506816 11.5712 14.645248-8.326144 19.838976-26.984448 11.51488-41.68704C889.023488 126.291968 784.397312 64 672.62464 64c-82.366464 0-159.889408 32.478208-219.052032 91.580416-1.95072 1.240064-3.779584 2.77504-5.492736 4.486144-40.503296 42.216448-94.235648 65.480704-151.389184 65.480704-65.480704 0-126.590976-30.759936-167.627776-84.43392-10.2144-13.403136-29.344768-15.941632-42.688512-5.665792-13.343744 10.268672-15.88224 29.459456-5.665792 42.863616C133.371904 247.158784 212.08064 286.65856 296.690688 286.65856z"  /><path d="M672.62464 288.47616c-82.366464 0-159.889408 32.416768-219.052032 91.522048-1.95072 1.240064-3.779584 2.772992-5.492736 4.486144-40.503296 42.215424-94.235648 65.47968-151.389184 65.47968-65.480704 0-126.590976-30.761984-167.627776-84.431872-10.2144-13.406208-29.344768-15.942656-42.688512-5.668864-13.343744 10.27584-15.88224 29.463552-5.665792 42.86464 52.663296 68.847616 131.4304 108.34944 215.98208 108.34944 71.503872 0 138.81344-28.048384 190.359552-79.122432 1.947648-1.240064 3.77856-2.771968 5.431296-4.543488 48.181248-50.189312 112.125952-77.821952 180.143104-77.821952 89.867264 0 174.124032 50.366464 219.942912 131.49184 8.266752 14.701568 26.923008 19.84 41.506816 11.5712 14.645248-8.32512 19.838976-26.983424 11.51488-41.68704C889.023488 350.708736 784.397312 288.47616 672.62464 288.47616z"  /><path d="M672.62464 512.896c-82.366464 0-159.889408 32.475136-219.052032 91.577344-1.95072 1.243136-3.779584 2.71872-5.492736 4.488192-40.503296 42.21952-94.235648 65.47968-151.389184 65.47968-65.480704 0-126.590976-30.761984-167.627776-84.430848-10.2144-13.406208-29.344768-15.944704-42.688512-5.668864-13.343744 10.273792-15.88224 29.463552-5.665792 42.863616 52.663296 68.845568 131.4304 108.34944 215.98208 108.34944 71.503872 0 138.81344-28.046336 190.299136-79.11936 2.009088-1.240064 3.84-2.77504 5.492736-4.544512 48.181248-50.189312 112.125952-77.822976 180.143104-77.822976 89.867264 0 174.124032 50.36544 219.942912 131.49184 8.266752 14.703616 26.923008 19.84 41.506816 11.573248 14.645248-8.32512 19.838976-26.984448 11.51488-41.684992C889.023488 575.187968 784.397312 512.896 672.62464 512.896z"  /><path d="M672.62464 737.343488c-82.366464 0-159.889408 32.47616-219.052032 91.580416-1.95072 1.241088-3.779584 2.77504-5.492736 4.488192-40.503296 42.215424-94.235648 65.47968-151.389184 65.47968-65.480704 0-126.590976-30.761984-167.627776-84.431872-10.2144-13.406208-29.344768-15.94368-42.688512-5.668864-13.343744 10.27584-15.88224 29.462528-5.665792 42.86464 52.663296 68.847616 131.4304 108.346368 215.98208 108.346368 71.503872 0 138.81344-28.046336 190.299136-79.11936 2.009088-1.241088 3.84-2.771968 5.492736-4.543488C540.662784 826.14784 604.607488 798.5152 672.62464 798.5152c89.867264 0 174.124032 50.363392 219.942912 131.49184 8.266752 14.701568 26.923008 19.836928 41.506816 11.5712 14.645248-8.32512 19.838976-26.983424 11.51488-41.68704C889.023488 799.635456 784.397312 737.343488 672.62464 737.343488z"  /></svg>